HIERARCHY
ROOT hip
{
  OFFSET 0.0 0.0 0.0
  CHANNELS 6 Xposition Yposition Zposition Zrotation Yrotation Xrotation
  JOINT abdomen
  {
    OFFSET 0.0 20.6881 -0.73152
    CHANNELS 3 Zrotation Xrotation Yrotation
    JOINT chest
    {
      OFFSET 0.0 11.7043 -0.48768
      CHANNELS 3 Zrotation Xrotation Yrotation
      JOINT neck
      {
        OFFSET 0.0 22.1894 -2.19456
        CHANNELS 3 Zrotation Xrotation Yrotation
        JOINT head
        {
          OFFSET -0.24384 7.07133 1.2192
          CHANNELS 3 Zrotation Xrotation Yrotation
          JOINT leftEye
          {
            OFFSET 4.14528 8.04674 8.04672
            CHANNELS 3 Zrotation Xrotation Yrotation
            End Site
            {
              OFFSET 1.0 0.0 0.0
            }
          }
          JOINT rightEye
          {
            OFFSET -3.6576 8.04674 8.04672
            CHANNELS 3 Zrotation Xrotation Yrotation
            End Site
            {
              OFFSET 1.0 0.0 0.0
            }
          }
        }
      }
      JOINT rCollar
      {
        OFFSET -2.68224 19.2634 -4.8768
        CHANNELS 3 Zrotation Xrotation Yrotation
        JOINT rShldr
        {
          OFFSET -8.77824 -1.95073 1.46304
          CHANNELS 3 Zrotation Xrotation Yrotation
          JOINT rForeArm
          {
            OFFSET -28.1742 -1.7115 0.48768
            CHANNELS 3 Zrotation Xrotation Yrotation
            JOINT rHand
            {
              OFFSET -22.5879 0.773209 7.07136
              CHANNELS 3 Zrotation Xrotation Yrotation
              JOINT rThumb1
              {
                OFFSET -1.2192 -0.487915 3.41376
                CHANNELS 3 Zrotation Xrotation Yrotation
                JOINT rThumb2
                {
                  OFFSET -3.37035 -0.52449 3.41376
                  CHANNELS 3 Zrotation Xrotation Yrotation
                  End Site
                  {
                    OFFSET -1.78271 -1.18214 1.43049
                  }
                }
              }
              JOINT rIndex1
              {
                OFFSET -7.75947 0.938293 5.60832
                CHANNELS 3 Zrotation Xrotation Yrotation
                JOINT rIndex2
                {
                  OFFSET -2.54057 -0.884171 1.56538
                  CHANNELS 3 Zrotation Xrotation Yrotation
                  End Site
                  {
                    OFFSET -1.62519 -0.234802 1.16502
                  }
                }
              }
              JOINT rMid1
              {
                OFFSET -8.24714 1.18213 3.41376
                CHANNELS 3 Zrotation Xrotation Yrotation
                JOINT rMid2
                {
                  OFFSET -3.10165 -0.590103 1.0647
                  CHANNELS 3 Zrotation Xrotation Yrotation
                  End Site
                  {
                    OFFSET -2.48547 -0.328903 0.83742
                  }
                }
              }
              JOINT rRing1
              {
                OFFSET -8.82822 0.546677 1.51678
                CHANNELS 3 Zrotation Xrotation Yrotation
                JOINT rRing2
                {
                  OFFSET -2.60934 -0.819778 -0.0198488
                  CHANNELS 3 Zrotation Xrotation Yrotation
                  End Site
                  {
                    OFFSET -2.33842 -0.294052 0.168128
                  }
                }
              }
              JOINT rPinky1
              {
                OFFSET -8.27202 -0.0477905 -0.4584
                CHANNELS 3 Zrotation Xrotation Yrotation
                JOINT rPinky2
                {
                  OFFSET -1.82734 -0.647385 -0.700984
                  CHANNELS 3 Zrotation Xrotation Yrotation
                  End Site
                  {
                    OFFSET -1.69225 -0.51767 -0.607171
                  }
                }
              }
            }
          }
        }
      }
      JOINT lCollar
      {
        OFFSET 2.68224 19.2634 -4.8768
        CHANNELS 3 Zrotation Xrotation Yrotation
        JOINT lShldr
        {
          OFFSET 8.77824 -1.95073 1.46304
          CHANNELS 3 Zrotation Xrotation Yrotation
          JOINT lForeArm
          {
            OFFSET 28.1742 -1.7115 0.48768
            CHANNELS 3 Zrotation Xrotation Yrotation
            JOINT lHand
            {
              OFFSET 22.5879 0.773209 7.07136
              CHANNELS 3 Zrotation Xrotation Yrotation
              JOINT lThumb1
              {
                OFFSET 1.2192 -0.487915 3.41376
                CHANNELS 3 Zrotation Xrotation Yrotation
                JOINT lThumb2
                {
                  OFFSET 3.37035 -0.52449 3.41376
                  CHANNELS 3 Zrotation Xrotation Yrotation
                  End Site
                  {
                    OFFSET 1.78271 -1.18214 1.43049
                  }
                }
              }
              JOINT lIndex1
              {
                OFFSET 7.75947 0.938293 5.60832
                CHANNELS 3 Zrotation Xrotation Yrotation
                JOINT lIndex2
                {
                  OFFSET 2.54057 -0.884171 1.56538
                  CHANNELS 3 Zrotation Xrotation Yrotation
                  End Site
                  {
                    OFFSET 1.62519 -0.234802 1.16502
                  }
                }
              }
              JOINT lMid1
              {
                OFFSET 8.24714 1.18213 3.41376
                CHANNELS 3 Zrotation Xrotation Yrotation
                JOINT lMid2
                {
                  OFFSET 3.10165 -0.590103 1.0647
                  CHANNELS 3 Zrotation Xrotation Yrotation
                  End Site
                  {
                    OFFSET 2.48547 -0.328903 0.83742
                  }
                }
              }
              JOINT lRing1
              {
                OFFSET 8.82822 0.546677 1.51678
                CHANNELS 3 Zrotation Xrotation Yrotation
                JOINT lRing2
                {
                  OFFSET 2.60934 -0.819778 -0.0198488
                  CHANNELS 3 Zrotation Xrotation Yrotation
                  End Site
                  {
                    OFFSET 2.33842 -0.294052 0.168128
                  }
                }
              }
              JOINT lPinky1
              {
                OFFSET 8.27202 -0.0477905 -0.4584
                CHANNELS 3 Zrotation Xrotation Yrotation
                JOINT lPinky2
                {
                  OFFSET 1.82734 -0.647385 -0.700984
                  CHANNELS 3 Zrotation Xrotation Yrotation
                  End Site
                  {
                    OFFSET 1.69225 -0.51767 -0.607171
                  }
                }
              }
            }
          }
        }
      }
    }
  }
  JOINT rButtock
  {
    OFFSET -8.77824 4.35084 1.2192
    CHANNELS 3 Zrotation Xrotation Yrotation
    JOINT rThigh
    {
      OFFSET 0.0 -1.70687 -2.19456
      CHANNELS 3 Zrotation Xrotation Yrotation
      JOINT rShin
      {
        OFFSET 0.0 -36.8199 0.73152
        CHANNELS 3 Zrotation Xrotation Yrotation
        JOINT rFoot
        {
          OFFSET 0.73152 -45.1104 -5.12064
          CHANNELS 3 Zrotation Xrotation Yrotation
          End Site
          {
            OFFSET -1.1221 -3.69964 12.103
          }
        }
      }
    }
  }
  JOINT lButtock
  {
    OFFSET 8.77824 4.35084 1.2192
    CHANNELS 3 Zrotation Xrotation Yrotation
    JOINT lThigh
    {
      OFFSET 0.0 -1.70687 -2.19456
      CHANNELS 3 Zrotation Xrotation Yrotation
      JOINT lShin
      {
        OFFSET 0.0 -36.8199 0.73152
        CHANNELS 3 Zrotation Xrotation Yrotation
        JOINT lFoot
        {
          OFFSET -0.73152 -45.1104 -5.12064
          CHANNELS 3 Zrotation Xrotation Yrotation
          End Site
          {
            OFFSET 1.1221 -3.69964 12.103
          }
        }
      }
    }
  }
}
MOTION
Frames: 6
Frame Time: 0.00833333
0.0 95.4542 0.0 4.0767 18.9724 7.2128 -1.34659 3.52468 -1.25957 1.45949 -4.29559 -0.276285 -2.63432 -0.98216 -3.90894 1.83907 -23.5887 -6.72102 -0.0 0.0 0.0 -0.0 0.0 0.0 0.0 0.0 0.0 0.0 0.0 0.0 0.0 0.0 0.0 -0.124336 -9.99691 -1.41958 -1.67681e-10 1.33151e-10 2.30532e-10 -2.90539e-10 2.31706e-10 3.97804e-10 -1.6767e-10 1.33143e-10 2.30533e-10 7.73091 5.47488 0.417314 -1.67681e-10 1.33145e-10 2.30535e-10 2.90554 0.965183 0.102902 -1.67678e-10 1.33142e-10 2.30537e-10 10.2786 0.731801 0.0259123 -1.67684e-10 1.33146e-10 2.3054e-10 2.22167 -0.733487 -0.20892 0.0 0.0 0.0 0.0 0.0 0.0 0.0 0.0 0.0 0.0609169 -7.01666 0.991164 -3.58048e-10 -4.85865e-10 -2.82551e-11 -6.18215e-10 -8.40354e-10 -5.02048e-11 -3.58056e-10 -4.85862e-10 -2.82497e-11 -7.73091 5.47488 -0.417314 -3.58046e-10 -4.85865e-10 -2.82517e-11 -2.90554 0.965183 -0.102902 -3.58052e-10 -4.85865e-10 -2.82503e-11 -10.2786 0.731801 -0.0259123 -3.58039e-10 -4.85864e-10 -2.82548e-11 -2.22167 -0.733487 0.20892 -2.03217e-16 0.0 -3.88251e-19 -7.70093 -25.8733 -3.97479 -0.279475 32.2044 -0.0643224 7.70217 27.1103 -20.6365 2.03217e-16 0.0 3.88251e-19 2.74608 -13.6867 0.437717 0.417819 44.1185 -0.862579 1.37082 12.0024 -8.59191
-0.02167999999999992 95.863 0.8282000000000025 4.0701 18.379 6.9829 -1.3975 3.69484 -0.657107 1.53104 -4.28653 -0.100584 -2.68088 -0.697941 -4.0338 1.99782 -23.4941 -6.94101 -0.0 0.0 0.0 -0.0 0.0 0.0 0.0 0.0 0.0 0.0 0.0 0.0 0.0 0.0 0.0 -0.115843 -9.65498 -1.37006 -2.40688e-10 2.93955e-10 -5.71216e-11 -4.13573e-10 5.08074e-10 -1.00195e-10 -2.40679e-10 2.93948e-10 -5.71212e-11 7.73091 5.47488 0.417314 -2.40691e-10 2.93951e-10 -5.71191e-11 2.90554 0.965183 0.102902 -2.40688e-10 2.93947e-10 -5.71188e-11 10.2786 0.731801 0.0259123 -2.4069e-10 2.93951e-10 -5.71152e-11 2.22167 -0.733487 -0.20892 0.0 0.0 0.0 0.0 0.0 0.0 0.0 0.0 0.0 0.0666283 -7.33213 1.03622 -8.06513e-10 3.2492e-11 -2.08958e-10 -1.39212e-09 5.88199e-11 -3.65346e-10 -8.06527e-10 3.24942e-11 -2.08953e-10 -7.73091 5.47488 -0.417314 -8.06512e-10 3.24909e-11 -2.08955e-10 -2.90554 0.965183 -0.102902 -8.06518e-10 3.24914e-11 -2.08955e-10 -10.2786 0.731801 -0.0259123 -8.06505e-10 3.24933e-11 -2.08958e-10 -2.22167 -0.733487 0.20892 -2.03217e-16 0.0 -3.88251e-19 -7.44122 -25.2946 -3.81516 -0.287257 32.7243 -0.062515 7.77365 26.4113 -21.4425 2.03217e-16 0.0 3.88251e-19 2.43471 -14.8317 1.0156 0.455468 45.4853 -0.889022 1.13822 10.9869 -7.84519
-0.05661000000000005 96.2157 1.6566000000000045 4.0016 17.8214 6.7316 -1.30819 3.88685 -0.119113 1.56138 -4.27797 0.0560754 -2.68932 -0.48972 -4.13655 2.10422 -23.3645 -7.13423 -0.0 0.0 0.0 -0.0 0.0 0.0 0.0 0.0 0.0 0.0 0.0 0.0 0.0 0.0 0.0 -0.10735 -9.30354 -1.31926 -2.41797e-10 2.99834e-10 -1.22995e-10 -4.14049e-10 5.17549e-10 -2.14249e-10 -2.41789e-10 2.99827e-10 -1.22995e-10 7.73091 5.47488 0.417314 -2.41801e-10 2.99831e-10 -1.22992e-10 2.90554 0.965183 0.102902 -2.41798e-10 2.99828e-10 -1.22993e-10 10.2786 0.731801 0.0259123 -2.41799e-10 2.9983e-10 -1.22989e-10 2.22167 -0.733487 -0.20892 0.0 0.0 0.0 0.0 0.0 0.0 0.0 0.0 0.0 0.0733664 -7.70481 1.08948 -9.92889e-10 2.78211e-10 -3.36175e-10 -1.71371e-09 4.85295e-10 -5.86531e-10 -9.92906e-10 2.78212e-10 -3.36169e-10 -7.73091 5.47488 -0.417314 -9.92888e-10 2.78209e-10 -3.36172e-10 -2.90554 0.965183 -0.102902 -9.92895e-10 2.7821e-10 -3.36173e-10 -10.2786 0.731801 -0.0259123 -9.9288e-10 2.78212e-10 -3.36175e-10 -2.22167 -0.733487 0.20892 -2.03217e-16 0.0 -3.88251e-19 -7.08265 -24.6293 -3.72394 -0.293393 33.1753 -0.056447 7.77989 25.5315 -22.3028 2.03217e-16 0.0 3.88251e-19 2.25588 -16.0269 1.55213 0.49395 46.7953 -0.917041 0.936249 9.98916 -7.05974
-0.11051000000000011 96.5141 2.488800000000005 3.8388 17.317 6.4539 -1.06608 4.10367 0.356741 1.54313 -4.26588 0.193811 -2.63887 -0.391069 -4.20875 2.13653 -23.1772 -7.29291 -0.0 0.0 0.0 -0.0 0.0 0.0 0.0 0.0 0.0 0.0 0.0 0.0 0.0 0.0 0.0 -0.0979954 -8.90983 -1.26243 -9.6704e-11 4.42668e-11 1.18857e-10 -1.64258e-10 7.62107e-11 2.04611e-10 -9.66967e-11 4.42611e-11 1.18855e-10 7.73091 5.47488 0.417314 -9.67085e-11 4.42644e-11 1.18863e-10 2.90554 0.965183 0.102902 -9.67042e-11 4.42621e-11 1.18861e-10 10.2786 0.731801 0.0259123 -9.67063e-11 4.42637e-11 1.18866e-10 2.22167 -0.733487 -0.20892 0.0 0.0 0.0 0.0 0.0 0.0 0.0 0.0 0.0 0.0817386 -8.13724 1.15143 -7.56635e-10 1.47862e-10 -4.05202e-10 -1.30563e-09 2.59852e-10 -7.04752e-10 -7.56649e-10 1.47863e-10 -4.05193e-10 -7.73091 5.47488 -0.417314 -7.56634e-10 1.4786e-10 -4.05199e-10 -2.90554 0.965183 -0.102902 -7.56642e-10 1.47861e-10 -4.05199e-10 -10.2786 0.731801 -0.0259123 -7.56626e-10 1.47864e-10 -4.05201e-10 -2.22167 -0.733487 0.20892 -2.03217e-16 0.0 -3.88251e-19 -6.60972 -23.8691 -3.70654 -0.298117 33.5666 -0.0454643 7.70431 24.42 -23.2612 2.03217e-16 0.0 3.88251e-19 2.22075 -17.2849 2.04571 0.534031 48.0651 -0.947418 0.765125 9.00106 -6.22376
-0.1829200000000002 96.7543 3.320200000000007 3.5724 16.901 6.1553 -0.725088 4.34697 0.794873 1.49282 -4.25668 0.319879 -2.51452 -0.380909 -4.24189 2.07933 -22.923 -7.41057 -0.0 0.0 0.0 -0.0 0.0 0.0 0.0 0.0 0.0 0.0 0.0 0.0 0.0 0.0 0.0 -0.0876528 -8.44337 -1.1953 1.60127e-10 -3.9638e-10 5.33593e-10 2.77337e-10 -6.84581e-10 9.22972e-10 1.60134e-10 -3.96385e-10 5.33589e-10 7.73091 5.47488 0.417314 1.60123e-10 -3.96382e-10 5.33603e-10 2.90554 0.965183 0.102902 1.60129e-10 -3.96383e-10 5.33599e-10 10.2786 0.731801 0.0259123 1.60123e-10 -3.96382e-10 5.33606e-10 2.22167 -0.733487 -0.20892 0.0 0.0 0.0 0.0 0.0 0.0 0.0 0.0 0.0 0.0923497 -8.63382 1.22279 -2.40132e-10 -1.72559e-10 -4.5461e-10 -4.13547e-10 -2.95105e-10 -7.87588e-10 -2.40141e-10 -1.72558e-10 -4.54597e-10 -7.73091 5.47488 -0.417314 -2.4013e-10 -1.7256e-10 -4.54606e-10 -2.90554 0.965183 -0.102902 -2.4014e-10 -1.72559e-10 -4.54604e-10 -10.2786 0.731801 -0.0259123 -2.40123e-10 -1.72556e-10 -4.54606e-10 -2.22167 -0.733487 0.20892 -2.03217e-16 0.0 -3.88251e-19 -6.04508 -23.0374 -3.75197 -0.302568 33.9706 -0.0280368 7.49629 23.0227 -24.2987 2.03217e-16 0.0 3.88251e-19 2.29233 -18.5817 2.51483 0.575684 49.2962 -0.979256 0.622354 8.00572 -5.29147
-0.27664 96.9344 4.152700000000003 3.1899 16.5703 5.8381 -0.272845 4.6091 1.17179 1.41471 -4.25466 0.428579 -2.3763 -0.399374 -4.26122 1.99354 -22.6602 -7.50958 -0.0 0.0 0.0 -0.0 0.0 0.0 0.0 0.0 0.0 0.0 0.0 0.0 0.0 0.0 0.0 -0.0787452 -8.00073 -1.13181 3.87362e-10 -8.39709e-10 1.02897e-09 6.67237e-10 -1.44952e-09 1.78071e-09 3.87368e-10 -8.39712e-10 1.02896e-09 7.73091 5.47488 0.417314 3.87359e-10 -8.39711e-10 1.02898e-09 2.90554 0.965183 0.102902 3.87368e-10 -8.39711e-10 1.02898e-09 10.2786 0.731801 0.0259123 3.87358e-10 -8.3971e-10 1.02898e-09 2.22167 -0.733487 -0.20892 0.0 0.0 0.0 0.0 0.0 0.0 0.0 0.0 0.0 0.104851 -9.18546 1.30228 3.02191e-10 -5.89833e-10 -4.66054e-10 5.22725e-10 -1.01813e-09 -8.04621e-10 3.02188e-10 -5.89832e-10 -4.66037e-10 -7.73091 5.47488 -0.417314 3.02194e-10 -5.89833e-10 -4.6605e-10 -2.90554 0.965183 -0.102902 3.02182e-10 -5.89833e-10 -4.66046e-10 -10.2786 0.731801 -0.0259123 3.022e-10 -5.8983e-10 -4.66048e-10 -2.22167 -0.733487 0.20892 -2.03217e-16 0.0 -3.88251e-19 -5.39671 -22.136 -3.85293 -0.30574 34.3123 -0.00656756 7.18205 21.5109 -25.3301 2.03217e-16 0.0 3.88251e-19 2.46847 -19.9073 2.95101 0.617218 50.4502 -1.01141 0.51694 7.03411 -4.32159
